<svg xmlns="http://www.w3.org/2000/svg" version="1.1" xmlns:xlink="http://www.w3.org/1999/xlink" xmlns:svgjs="http://svgjs.dev/svgjs" width="2000" height="414" viewBox="0 0 2000 414"><g transform="matrix(1,0,0,1,-1.2121212121212466,0.10101939642046887)"><svg viewBox="0 0 396 82" data-background-color="#ffffff" preserveAspectRatio="xMidYMid meet" height="414" width="2000" xmlns="http://www.w3.org/2000/svg" xmlns:xlink="http://www.w3.org/1999/xlink"><g id="tight-bounds" transform="matrix(1,0,0,1,0.2400000000000091,-0.020008672720962295)"><svg viewBox="0 0 395.52 82.0400173454419" height="82.0400173454419" width="395.52"><g><svg viewBox="0 0 472.3899815388502 97.98463359440798" height="82.0400173454419" width="395.52"><g><rect width="3.597739824855289" height="71.255106195644" x="63.85407463322189" y="13.364763699381989" fill="#111111" opacity="1" stroke-width="0" stroke="transparent" fill-opacity="1" class="rect-r$-0" data-fill-palette-color="primary" rx="1%" id="r$-0" data-palette-color="#111111"></rect></g><g transform="matrix(1,0,0,1,76.86998153885018,13.542015207331346)"><svg viewBox="0 0 395.52 70.90060317974529" height="70.90060317974529" width="395.52"><g id="textblocktransform"><svg viewBox="0 0 395.52 70.90060317974529" height="70.90060317974529" width="395.52" id="textblock"><g><svg viewBox="0 0 395.52 39.89464020388777" height="39.89464020388777" width="395.52"><g transform="matrix(1,0,0,1,0,0)"><svg width="395.52" viewBox="4 -34.85 353.408154296875 35.65" height="39.89464020388777" data-palette-color="#111111"><g transform="matrix(1,0,0,1,0,0)"><g><svg width="16.65876953125" viewBox="1.78 -36.36 74.21 36.36" height="8.162" data-palette-color="#111111" id="scriptelement" x="340.749384765625" y="-34.85"><path d="M12.91-30.02L1.78-30.02 1.78-36.36 31.64-36.36 31.64-30.02 20.51-30.02 20.51 0 12.91 0 12.91-30.02ZM36.57 0L36.57-36.36 46.06-36.36 56.07-11.93 56.5-11.93 66.51-36.36 75.99-36.36 75.99 0 68.53 0 68.53-23.67 68.23-23.67 58.82-0.18 53.74-0.18 44.33-23.76 44.03-23.76 44.03 0 36.57 0Z" opacity="1" transform="matrix(1,0,0,1,0,0)" fill="#111111" class="undefined-123" data-fill-palette-color="primary" id="lv-123"></path></svg></g></g><g class="wordmark-text-0" data-fill-palette-color="primary" id="text-0"><path d="M20.55-4.2L33.05-34.1 37.25-34.1 37.25 0 33.55 0 33.55-27.25 22.15 0 18.65 0 7.75-27.15 7.75 0 4 0 4-34.1 8.6-34.1 20.55-4.2ZM58.65 0.8Q54.4 0.8 51.07-1.48 47.75-3.75 45.87-7.8 44-11.85 44-17L44-17Q44-22.15 45.87-26.23 47.75-30.3 51.07-32.58 54.4-34.85 58.65-34.85L58.65-34.85Q62.9-34.85 66.22-32.58 69.55-30.3 71.42-26.23 73.3-22.15 73.3-16.95L73.3-16.95Q73.3-11.8 71.42-7.78 69.55-3.75 66.22-1.48 62.9 0.8 58.65 0.8L58.65 0.8ZM58.65-2.65Q61.75-2.65 64.22-4.48 66.7-6.3 68.1-9.58 69.5-12.85 69.5-17L69.5-17Q69.5-21.15 68.1-24.45 66.7-27.75 64.22-29.6 61.75-31.45 58.65-31.45L58.65-31.45Q55.55-31.45 53.07-29.6 50.6-27.75 49.2-24.45 47.8-21.15 47.8-17L47.8-17Q47.8-12.85 49.2-9.58 50.6-6.3 53.07-4.48 55.55-2.65 58.65-2.65L58.65-2.65ZM96.55-18.35Q99.5-17.6 101.1-15.45 102.7-13.3 102.7-9.8L102.7-9.8Q102.7-5.25 99.95-2.63 97.2 0 92.4 0L92.4 0 80 0 80-34.1 91.25-34.1Q95.8-34.1 98.4-31.73 101-29.35 101-25.4L101-25.4Q101-22.85 99.85-21.03 98.7-19.2 96.55-18.35L96.55-18.35ZM83.75-30.95L83.75-19.55 91.7-19.55Q97.05-19.55 97.05-25.4L97.05-25.4Q97.05-28.05 95.5-29.5 93.95-30.95 91.2-30.95L91.2-30.95 83.75-30.95ZM91.9-3.1Q95.1-3.1 96.92-4.9 98.75-6.7 98.75-9.8L98.75-9.8Q98.75-12.9 96.92-14.68 95.1-16.45 91.9-16.45L91.9-16.45 83.75-16.45 83.75-3.1 91.9-3.1ZM117.84 0L107.49 0 107.49-3.3 110.79-3.3 110.79-30.8 107.49-30.8 107.49-34.1 117.84-34.1 117.84-30.8 114.54-30.8 114.54-3.3 117.84-3.3 117.84 0ZM143.64 0L124.54 0 124.54-34.1 128.29-34.1 128.29-3.1 143.64-3.1 143.64 0ZM167.59 0L148.34 0 148.34-34.1 167.44-34.1 167.44-30.95 152.09-30.95 152.09-19.05 164.09-19.05 164.09-16 152.09-16 152.09-3.1 167.59-3.1 167.59 0ZM184.69-17.2L195.09 0 190.89 0 182.29-14.2 174.24 0 170.04 0 179.89-16.85 169.79-34.1 173.84-34.1 182.34-19.55 191.04-34.1 194.94-34.1 184.69-17.2ZM199.33 0L199.33-34.1 210.73-34.1Q215.33-34.1 218.08-31.3 220.83-28.5 220.83-23.55L220.83-23.55Q220.83-18.65 217.96-15.85 215.08-13.05 210.33-13.05L210.33-13.05 203.08-13.05 203.08 0 199.33 0ZM203.08-16.15L210.23-16.15Q213.58-16.15 215.33-18.03 217.08-19.9 217.08-23.55L217.08-23.55Q217.08-27.2 215.33-29.1 213.58-31 210.23-31L210.23-31 203.08-31 203.08-16.15ZM249.13 0L245.18 0 236.53-15.05 229.78-15.05 229.78 0 226.03 0 226.03-34.1 237.43-34.1Q240.53-34.1 242.88-32.9 245.23-31.7 246.48-29.53 247.73-27.35 247.73-24.55L247.73-24.55Q247.73-21.15 245.68-18.73 243.63-16.3 240.23-15.45L240.23-15.45 249.13 0ZM229.78-31L229.78-18.15 236.93-18.15Q240.23-18.15 242.01-19.9 243.78-21.65 243.78-24.55L243.78-24.55Q243.78-27.45 242.01-29.23 240.23-31 236.93-31L236.93-31 229.78-31ZM274.28 0L255.03 0 255.03-34.1 274.13-34.1 274.13-30.95 258.78-30.95 258.78-19.05 270.78-19.05 270.78-16 258.78-16 258.78-3.1 274.28-3.1 274.28 0ZM291.58 0.8Q287.83 0.8 284.28-1.07 280.73-2.95 278.38-6.15L278.38-6.15 281.43-8.85Q283.23-6 286.03-4.33 288.83-2.65 292.08-2.65L292.08-2.65Q295.63-2.65 297.48-4.23 299.33-5.8 299.33-8.5L299.33-8.5Q299.33-11.45 297.35-13.03 295.38-14.6 291.08-15.8L291.08-15.8Q280.28-18.45 280.28-25.6L280.28-25.6Q280.28-30.05 283.18-32.45 286.08-34.85 291.23-34.85L291.23-34.85Q294.98-34.85 297.95-33.45 300.93-32.05 303.28-29.15L303.28-29.15 300.33-26.65Q298.53-29.1 296.38-30.28 294.23-31.45 291.23-31.45L291.23-31.45Q288.08-31.45 286.08-29.98 284.08-28.5 284.08-25.95L284.08-25.95Q284.08-23.35 285.93-21.83 287.78-20.3 292.18-19.25L292.18-19.25Q297.38-17.85 300.25-15.4 303.13-12.95 303.13-8.5L303.13-8.5Q303.13-5.75 301.73-3.65 300.33-1.55 297.7-0.38 295.08 0.8 291.58 0.8L291.58 0.8ZM320.72 0.8Q316.97 0.8 313.42-1.07 309.87-2.95 307.52-6.15L307.52-6.15 310.57-8.85Q312.37-6 315.17-4.33 317.97-2.65 321.22-2.65L321.22-2.65Q324.77-2.65 326.62-4.23 328.47-5.8 328.47-8.5L328.47-8.5Q328.47-11.45 326.5-13.03 324.52-14.6 320.22-15.8L320.22-15.8Q309.42-18.45 309.42-25.6L309.42-25.6Q309.42-30.05 312.32-32.45 315.22-34.85 320.37-34.85L320.37-34.85Q324.12-34.85 327.1-33.45 330.07-32.05 332.42-29.15L332.42-29.15 329.47-26.65Q327.67-29.1 325.52-30.28 323.37-31.45 320.37-31.45L320.37-31.45Q317.22-31.45 315.22-29.98 313.22-28.5 313.22-25.95L313.22-25.95Q313.22-23.35 315.07-21.83 316.92-20.3 321.32-19.25L321.32-19.25Q326.52-17.85 329.4-15.4 332.27-12.95 332.27-8.5L332.27-8.5Q332.27-5.75 330.87-3.65 329.47-1.55 326.85-0.38 324.22 0.8 320.72 0.8L320.72 0.8Z" fill="#111111" data-fill-palette-color="primary"></path></g></svg></g></svg></g><g transform="matrix(1,0,0,1,0,49.31280728466078)"><svg viewBox="0 0 232.209792 21.58779589508451" height="21.58779589508451" width="232.209792"><g transform="matrix(1,0,0,1,0,0)"><svg width="232.209792" viewBox="2.4 -37.85 514.65 47.85" height="21.58779589508451" data-palette-color="#0074d9"><path d="M29.5-6.3L29.5-17.7 34.3-17.7 34.3-4.05Q31.7-1.9 28.25-0.75 24.8 0.4 21.05 0.4L21.05 0.4Q15.75 0.4 11.5-1.93 7.25-4.25 4.83-8.33 2.4-12.4 2.4-17.5L2.4-17.5Q2.4-22.6 4.83-26.7 7.25-30.8 11.53-33.1 15.8-35.4 21.15-35.4L21.15-35.4Q25.35-35.4 28.78-34.02 32.2-32.65 34.6-30L34.6-30 31.5-26.9Q27.3-30.95 21.35-30.95L21.35-30.95Q17.35-30.95 14.18-29.23 11-27.5 9.2-24.43 7.4-21.35 7.4-17.5L7.4-17.5Q7.4-13.7 9.2-10.63 11-7.55 14.18-5.8 17.35-4.05 21.3-4.05L21.3-4.05Q26-4.05 29.5-6.3L29.5-6.3ZM54.5 0.3Q50.55 0.3 47.4-1.45 44.25-3.2 42.47-6.28 40.7-9.35 40.7-13.25L40.7-13.25Q40.7-17.15 42.47-20.23 44.25-23.3 47.4-25.03 50.55-26.75 54.5-26.75L54.5-26.75Q58.45-26.75 61.57-25.03 64.7-23.3 66.47-20.23 68.25-17.15 68.25-13.25L68.25-13.25Q68.25-9.35 66.47-6.28 64.7-3.2 61.57-1.45 58.45 0.3 54.5 0.3L54.5 0.3ZM54.5-3.9Q57.05-3.9 59.07-5.08 61.1-6.25 62.25-8.38 63.4-10.5 63.4-13.25L63.4-13.25Q63.4-16 62.25-18.13 61.1-20.25 59.07-21.4 57.05-22.55 54.5-22.55L54.5-22.55Q51.95-22.55 49.92-21.4 47.9-20.25 46.72-18.13 45.55-16 45.55-13.25L45.55-13.25Q45.55-10.5 46.72-8.38 47.9-6.25 49.92-5.08 51.95-3.9 54.5-3.9L54.5-3.9ZM86.25 0.3Q82.3 0.3 79.14-1.45 76-3.2 74.22-6.28 72.44-9.35 72.44-13.25L72.44-13.25Q72.44-17.15 74.22-20.23 76-23.3 79.14-25.03 82.3-26.75 86.25-26.75L86.25-26.75Q90.19-26.75 93.32-25.03 96.44-23.3 98.22-20.23 100-17.15 100-13.25L100-13.25Q100-9.35 98.22-6.28 96.44-3.2 93.32-1.45 90.19 0.3 86.25 0.3L86.25 0.3ZM86.25-3.9Q88.8-3.9 90.82-5.08 92.84-6.25 94-8.38 95.14-10.5 95.14-13.25L95.14-13.25Q95.14-16 94-18.13 92.84-20.25 90.82-21.4 88.8-22.55 86.25-22.55L86.25-22.55Q83.69-22.55 81.67-21.4 79.64-20.25 78.47-18.13 77.3-16 77.3-13.25L77.3-13.25Q77.3-10.5 78.47-8.38 79.64-6.25 81.67-5.08 83.69-3.9 86.25-3.9L86.25-3.9ZM126.84-37.1L131.64-37.1 131.64 0 127.04 0 127.04-4.2Q125.44-2 122.99-0.85 120.54 0.3 117.59 0.3L117.59 0.3Q113.74 0.3 110.69-1.4 107.64-3.1 105.92-6.18 104.19-9.25 104.19-13.25L104.19-13.25Q104.19-17.25 105.92-20.3 107.64-23.35 110.69-25.05 113.74-26.75 117.59-26.75L117.59-26.75Q120.44-26.75 122.84-25.68 125.24-24.6 126.84-22.5L126.84-22.5 126.84-37.1ZM117.99-3.9Q120.49-3.9 122.54-5.08 124.59-6.25 125.74-8.38 126.89-10.5 126.89-13.25L126.89-13.25Q126.89-16 125.74-18.13 124.59-20.25 122.54-21.4 120.49-22.55 117.99-22.55L117.99-22.55Q115.44-22.55 113.42-21.4 111.39-20.25 110.22-18.13 109.04-16 109.04-13.25L109.04-13.25Q109.04-10.5 110.22-8.38 111.39-6.25 113.42-5.08 115.44-3.9 117.99-3.9L117.99-3.9ZM141.94-6.55Q143.34-6.55 144.26-5.58 145.19-4.6 145.19-3.15L145.19-3.15Q145.19-2.4 145.01-1.7 144.84-1 144.34 0.45L144.34 0.45 141.99 7.4 138.84 7.4 140.69-0.05Q139.74-0.4 139.16-1.23 138.59-2.05 138.59-3.15L138.59-3.15Q138.59-4.65 139.54-5.6 140.49-6.55 141.94-6.55L141.94-6.55ZM175.23-33.45Q170.93-33.45 170.93-28.8L170.93-28.8 170.93-26.5 178.63-26.5 178.63-22.55 171.03-22.55 171.03 0 166.23 0 166.23-22.55 161.73-22.55 161.73-26.5 166.23-26.5 166.23-28.85Q166.23-32.8 168.53-35.1 170.83-37.4 174.98-37.4L174.98-37.4Q176.58-37.4 177.98-37 179.38-36.6 180.38-35.85L180.38-35.85 178.93-32.2Q177.28-33.45 175.23-33.45L175.23-33.45ZM194.13 0.3Q190.18 0.3 187.03-1.45 183.88-3.2 182.11-6.28 180.33-9.35 180.33-13.25L180.33-13.25Q180.33-17.15 182.11-20.23 183.88-23.3 187.03-25.03 190.18-26.75 194.13-26.75L194.13-26.75Q198.08-26.75 201.21-25.03 204.33-23.3 206.11-20.23 207.88-17.15 207.88-13.25L207.88-13.25Q207.88-9.35 206.11-6.28 204.33-3.2 201.21-1.45 198.08 0.3 194.13 0.3L194.13 0.3ZM194.13-3.9Q196.68-3.9 198.71-5.08 200.73-6.25 201.88-8.38 203.03-10.5 203.03-13.25L203.03-13.25Q203.03-16 201.88-18.13 200.73-20.25 198.71-21.4 196.68-22.55 194.13-22.55L194.13-22.55Q191.58-22.55 189.56-21.4 187.53-20.25 186.36-18.13 185.18-16 185.18-13.25L185.18-13.25Q185.18-10.5 186.36-8.38 187.53-6.25 189.56-5.08 191.58-3.9 194.13-3.9L194.13-3.9ZM219.13-22.05Q220.38-24.35 222.83-25.55 225.28-26.75 228.78-26.75L228.78-26.75 228.78-22.1Q228.38-22.15 227.68-22.15L227.68-22.15Q223.78-22.15 221.55-19.83 219.33-17.5 219.33-13.2L219.33-13.2 219.33 0 214.53 0 214.53-26.5 219.13-26.5 219.13-22.05ZM269.27-26.5L273.82-26.5 273.82-3.6Q273.82 3.35 270.38 6.68 266.92 10 260.07 10L260.07 10Q256.32 10 252.92 8.97 249.52 7.95 247.42 6.05L247.42 6.05 249.72 2.35Q251.57 3.95 254.3 4.88 257.02 5.8 259.92 5.8L259.92 5.8Q264.57 5.8 266.8 3.6 269.02 1.4 269.02-3.1L269.02-3.1 269.02-5.2Q267.32-3.15 264.85-2.13 262.38-1.1 259.47-1.1L259.47-1.1Q255.67-1.1 252.6-2.73 249.52-4.35 247.77-7.28 246.02-10.2 246.02-13.95L246.02-13.95Q246.02-17.7 247.77-20.63 249.52-23.55 252.6-25.15 255.67-26.75 259.47-26.75L259.47-26.75Q262.47-26.75 265.05-25.65 267.63-24.55 269.27-22.4L269.27-22.4 269.27-26.5ZM260.02-5.3Q262.63-5.3 264.7-6.4 266.77-7.5 267.95-9.47 269.13-11.45 269.13-13.95L269.13-13.95Q269.13-17.8 266.57-20.18 264.02-22.55 260.02-22.55L260.02-22.55Q255.97-22.55 253.42-20.18 250.87-17.8 250.87-13.95L250.87-13.95Q250.87-11.45 252.05-9.47 253.22-7.5 255.3-6.4 257.38-5.3 260.02-5.3L260.02-5.3ZM287.57-22.05Q288.82-24.35 291.27-25.55 293.72-26.75 297.22-26.75L297.22-26.75 297.22-22.1Q296.82-22.15 296.12-22.15L296.12-22.15Q292.22-22.15 290-19.83 287.77-17.5 287.77-13.2L287.77-13.2 287.77 0 282.97 0 282.97-26.5 287.57-26.5 287.57-22.05ZM326.82-13.1Q326.82-12.55 326.72-11.65L326.72-11.65 305.22-11.65Q305.67-8.15 308.29-6.03 310.92-3.9 314.82-3.9L314.82-3.9Q319.57-3.9 322.47-7.1L322.47-7.1 325.12-4Q323.32-1.9 320.64-0.8 317.97 0.3 314.67 0.3L314.67 0.3Q310.47 0.3 307.22-1.43 303.97-3.15 302.19-6.25 300.42-9.35 300.42-13.25L300.42-13.25Q300.42-17.1 302.14-20.2 303.87-23.3 306.89-25.03 309.92-26.75 313.72-26.75L313.72-26.75Q317.52-26.75 320.49-25.03 323.47-23.3 325.14-20.2 326.82-17.1 326.82-13.1L326.82-13.1ZM313.72-22.7Q310.27-22.7 307.94-20.6 305.62-18.5 305.22-15.1L305.22-15.1 322.22-15.1Q321.82-18.45 319.49-20.58 317.17-22.7 313.72-22.7L313.72-22.7ZM342.37-26.75Q347.87-26.75 350.79-24.05 353.72-21.35 353.72-16L353.72-16 353.72 0 349.17 0 349.17-3.5Q347.97-1.65 345.74-0.68 343.52 0.3 340.47 0.3L340.47 0.3Q336.02 0.3 333.34-1.85 330.67-4 330.67-7.5L330.67-7.5Q330.67-11 333.22-13.13 335.77-15.25 341.32-15.25L341.32-15.25 348.92-15.25 348.92-16.2Q348.92-19.3 347.12-20.95 345.32-22.6 341.82-22.6L341.82-22.6Q339.47-22.6 337.22-21.83 334.97-21.05 333.42-19.75L333.42-19.75 331.42-23.35Q333.47-25 336.32-25.88 339.17-26.75 342.37-26.75L342.37-26.75ZM341.27-3.4Q344.02-3.4 346.02-4.63 348.02-5.85 348.92-8.1L348.92-8.1 348.92-11.8 341.52-11.8Q335.42-11.8 335.42-7.7L335.42-7.7Q335.42-5.7 336.97-4.55 338.52-3.4 341.27-3.4L341.27-3.4ZM376.01-5L377.51-1.55Q376.46-0.65 374.91-0.18 373.36 0.3 371.71 0.3L371.71 0.3Q367.71 0.3 365.51-1.85 363.31-4 363.31-8L363.31-8 363.31-22.55 358.81-22.55 358.81-26.5 363.31-26.5 363.31-32.3 368.11-32.3 368.11-26.5 375.71-26.5 375.71-22.55 368.11-22.55 368.11-8.2Q368.11-6.05 369.19-4.9 370.26-3.75 372.26-3.75L372.26-3.75Q374.46-3.75 376.01-5L376.01-5ZM410.81-26.75Q414.66-26.75 417.71-25.05 420.76-23.35 422.48-20.3 424.21-17.25 424.21-13.25L424.21-13.25Q424.21-9.25 422.48-6.18 420.76-3.1 417.71-1.4 414.66 0.3 410.81 0.3L410.81 0.3Q407.96 0.3 405.58-0.8 403.21-1.9 401.56-4L401.56-4 401.56 9.7 396.76 9.7 396.76-26.5 401.36-26.5 401.36-22.3Q402.96-24.5 405.41-25.63 407.86-26.75 410.81-26.75L410.81-26.75ZM410.41-3.9Q412.96-3.9 414.98-5.08 417.01-6.25 418.18-8.38 419.36-10.5 419.36-13.25L419.36-13.25Q419.36-16 418.18-18.13 417.01-20.25 414.98-21.4 412.96-22.55 410.41-22.55L410.41-22.55Q407.91-22.55 405.88-21.38 403.86-20.2 402.68-18.1 401.51-16 401.51-13.25L401.51-13.25Q401.51-10.5 402.66-8.38 403.81-6.25 405.86-5.08 407.91-3.9 410.41-3.9L410.41-3.9ZM435.46-22.05Q436.71-24.35 439.16-25.55 441.61-26.75 445.11-26.75L445.11-26.75 445.11-22.1Q444.71-22.15 444.01-22.15L444.01-22.15Q440.11-22.15 437.88-19.83 435.66-17.5 435.66-13.2L435.66-13.2 435.66 0 430.86 0 430.86-26.5 435.46-26.5 435.46-22.05ZM451 0L451-26.5 455.8-26.5 455.8 0 451 0ZM453.4-31.6Q452-31.6 451.08-32.5 450.15-33.4 450.15-34.7L450.15-34.7Q450.15-36 451.08-36.93 452-37.85 453.4-37.85L453.4-37.85Q454.8-37.85 455.73-36.98 456.65-36.1 456.65-34.8L456.65-34.8Q456.65-33.45 455.73-32.52 454.8-31.6 453.4-31.6L453.4-31.6ZM476.5 0.3Q472.45 0.3 469.28-1.45 466.1-3.2 464.3-6.28 462.5-9.35 462.5-13.25L462.5-13.25Q462.5-17.15 464.3-20.23 466.1-23.3 469.28-25.03 472.45-26.75 476.5-26.75L476.5-26.75Q480.1-26.75 482.93-25.3 485.75-23.85 487.3-21.1L487.3-21.1 483.65-18.75Q482.4-20.65 480.55-21.6 478.7-22.55 476.45-22.55L476.45-22.55Q473.85-22.55 471.78-21.4 469.7-20.25 468.53-18.13 467.35-16 467.35-13.25L467.35-13.25Q467.35-10.45 468.53-8.33 469.7-6.2 471.78-5.05 473.85-3.9 476.45-3.9L476.45-3.9Q478.7-3.9 480.55-4.85 482.4-5.8 483.65-7.7L483.65-7.7 487.3-5.4Q485.75-2.65 482.93-1.18 480.1 0.3 476.5 0.3L476.5 0.3ZM517.05-13.1Q517.05-12.55 516.95-11.65L516.95-11.65 495.45-11.65Q495.9-8.15 498.52-6.03 501.15-3.9 505.05-3.9L505.05-3.9Q509.8-3.9 512.7-7.1L512.7-7.1 515.35-4Q513.55-1.9 510.87-0.8 508.2 0.3 504.9 0.3L504.9 0.3Q500.7 0.3 497.45-1.43 494.2-3.15 492.42-6.25 490.65-9.35 490.65-13.25L490.65-13.25Q490.65-17.1 492.37-20.2 494.1-23.3 497.12-25.03 500.15-26.75 503.95-26.75L503.95-26.75Q507.75-26.75 510.72-25.03 513.7-23.3 515.38-20.2 517.05-17.1 517.05-13.1L517.05-13.1ZM503.95-22.7Q500.5-22.7 498.17-20.6 495.85-18.5 495.45-15.1L495.45-15.1 512.45-15.1Q512.05-18.45 509.72-20.58 507.4-22.7 503.95-22.7L503.95-22.7Z" opacity="1" transform="matrix(1,0,0,1,0,0)" fill="#0074d9" class="slogan-text-1" data-fill-palette-color="secondary" id="text-1"></path></svg></g></svg></g></svg></g></svg></g><g><svg viewBox="0 0 54.43590755244888 97.98463359440798" height="97.98463359440798" width="54.43590755244888"><g><svg xmlns="http://www.w3.org/2000/svg" xmlns:xlink="http://www.w3.org/1999/xlink" version="1.1" x="0" y="0" viewBox="25 5 50 90" enable-background="new 0 0 100 100" xml:space="preserve" height="97.98463359440798" width="54.43590755244888" class="icon-icon-0" data-fill-palette-color="accent" id="icon-0"><g fill="#0074d9" data-fill-palette-color="accent"><path d="M68 5H32c-3.9 0-7 3.1-7 7v76c0 3.9 3.1 7 7 7h36c3.9 0 7-3.1 7-7V12C75 8.1 71.9 5 68 5zM29 21h42v58H29V21zM32 9h36c1.7 0 3 1.3 3 3v5H29v-5C29 10.3 30.3 9 32 9zM68 91H32c-1.7 0-3-1.3-3-3v-5h42v5C71 89.7 69.7 91 68 91zM45 13c0-1.1 0.9-2 2-2h6c1.1 0 2 0.9 2 2s-0.9 2-2 2h-6C45.9 15 45 14.1 45 13zM52 87c0 1.1-0.9 2-2 2s-2-0.9-2-2c0-1.1 0.9-2 2-2S52 85.9 52 87z" fill="#0074d9" data-fill-palette-color="accent"></path></g></svg></g></svg></g></svg></g><defs></defs></svg><rect width="395.52" height="82.0400173454419" fill="none" stroke="none" visibility="hidden"></rect></g></svg></g></svg>
